<?xml version="1.0" encoding="utf-8"?>
<!-- Generator: Adobe Illustrator 23.1.1, SVG Export Plug-In . SVG Version: 6.00 Build 0)  -->
<svg version="1.1" id="Layer_1" xmlns="http://www.w3.org/2000/svg" xmlns:xlink="http://www.w3.org/1999/xlink" x="0px" y="0px"
	 viewBox="0 0 955 448" style="enable-background:new 0 0 955 448;" xml:space="preserve">
<style type="text/css">
	.st0{fill:#FFFFFF;}
	.st1{font-family:'DIN2014-Light';}
	.st2{font-size:36.4694px;}
	.st3{fill:none;stroke:#FFFFFF;stroke-miterlimit:10;}
	.st4{display:none;fill:none;stroke:#FFFFFF;stroke-miterlimit:10;}
	.st5{opacity:0.3;fill:none;stroke:#FFFFFF;stroke-miterlimit:10;}
	.st6{opacity:0.2;fill:#FFFFFF;}
	.st7{fill:none;stroke:#FFFFFF;stroke-miterlimit:10;stroke-dasharray:8.0081,8.0081;}
	.st8{fill:none;stroke:#FFFFFF;stroke-miterlimit:10;stroke-dasharray:7.8022,7.8022;}
</style>
<g>
	<g id="graph_x5F_text">
		<g>
			<path class="st0" d="M179.6,423l4.1,12.1l4.1-12.1h3l-5.9,16.6h-2.5l-5.9-16.6H179.6z"/>
			<path class="st0" d="M200.5,437.8c-0.8,1.5-2.2,2-4.3,2c-3.4,0-5.3-2.2-5.3-5.4v-1.6c0-3.5,1.7-5.4,4.9-5.4c3.3,0,4.8,2,4.8,5.5
				v1.3h-7.2v0c0,1.9,0.7,3.3,2.6,3.3c1.4,0,2-0.4,2.5-1.2L200.5,437.8z M193.5,432.3h4.6c-0.1-1.8-0.8-2.6-2.3-2.6
				C194.3,429.6,193.6,430.6,193.5,432.3z"/>
			<path class="st0" d="M209.3,430.6c-0.4-0.6-0.9-0.9-1.7-0.9c-1.3,0-2.2,1-2.2,2.7v7.2h-2.6v-12h2.5v1.1c0.5-0.7,1.3-1.3,2.7-1.3
				c1.5,0,2.6,0.6,3.3,1.8L209.3,430.6z"/>
			<path class="st0" d="M214.5,427.6l3,8.4l2.7-8.4h2.6l-4.2,12.5c-1,3.1-1.9,4.1-5.3,4.1v-2.4c1.7,0,2.4-0.3,3-2.1l-4.6-12.1H214.5
				z"/>
			<path class="st0" d="M233.7,433.6v6h-2.8V423h5.6c3.8,0,6.1,1.8,6.1,5.2c0,3.4-2.3,5.3-6.1,5.3H233.7z M236.2,431.2
				c2.5,0,3.6-1,3.6-2.9c0-1.8-1.1-2.8-3.6-2.8h-2.6v5.7H236.2z"/>
			<path class="st0" d="M254.2,434.4c0,3.2-1.6,5.5-5.1,5.5c-3.4,0-5.1-2.2-5.1-5.5v-1.5c0-3.5,1.9-5.4,5.1-5.4s5.1,1.9,5.1,5.4
				V434.4z M251.6,434.3v-1.4c0-2.1-0.8-3.3-2.5-3.3c-1.7,0-2.6,1.2-2.6,3.3v1.4c0,1.9,0.6,3.3,2.6,3.3
				C250.9,437.6,251.6,436.2,251.6,434.3z"/>
			<path class="st0" d="M266,434.4c0,3.2-1.6,5.5-5.1,5.5c-3.4,0-5.1-2.2-5.1-5.5v-1.5c0-3.5,1.9-5.4,5.1-5.4s5.1,1.9,5.1,5.4V434.4
				z M263.5,434.3v-1.4c0-2.1-0.8-3.3-2.5-3.3c-1.7,0-2.6,1.2-2.6,3.3v1.4c0,1.9,0.6,3.3,2.6,3.3
				C262.7,437.6,263.5,436.2,263.5,434.3z"/>
			<path class="st0" d="M274.6,430.6c-0.4-0.6-0.9-0.9-1.7-0.9c-1.3,0-2.2,1-2.2,2.7v7.2h-2.6v-12h2.5v1.1c0.5-0.7,1.3-1.3,2.7-1.3
				c1.5,0,2.6,0.6,3.3,1.8L274.6,430.6z"/>
		</g>
		<g>
			<path class="st0" d="M106.3,388.6c-0.6-0.9-1.4-1.6-2.6-1.9v5.3c3.4,0.8,5.1,2.1,5.1,5.2c0,2.4-1.5,4.7-5,5.1v2.9h-2.5v-2.9
				c-2.3-0.3-4-1.2-5.3-2.9l2.4-1.6c0.8,1,1.7,1.7,3,1.9l0-0.2v-5.2c-3.2-0.8-4.9-2.4-4.9-5.3c0-2.5,1.5-4.6,4.8-4.9v-3h2.5v3
				c2.1,0.3,3.7,1.3,4.8,2.9L106.3,388.6z M101.4,391.3v-4.7c-1.2,0.3-1.9,1.1-1.9,2.3C99.5,390.2,100.1,390.8,101.4,391.3z
				 M103.7,394.8v4.6v0.2c1.5-0.3,2.1-1.3,2.1-2.3C105.8,396.2,105.3,395.4,103.7,394.8z"/>
		</g>
		<g>
			<path class="st0" d="M78,15.2c-0.6-0.9-1.4-1.6-2.6-1.9v5.3c3.4,0.8,5.1,2.1,5.1,5.2c0,2.4-1.5,4.7-5,5.1v2.9H73v-2.9
				c-2.3-0.3-4-1.2-5.3-2.9l2.4-1.6c0.8,1,1.7,1.7,3,1.9l0-0.2v-5.2c-3.2-0.8-4.9-2.4-4.9-5.3c0-2.5,1.5-4.6,4.8-4.9v-3h2.5v3
				c2.1,0.3,3.7,1.3,4.8,2.9L78,15.2z M73.1,17.9v-4.7c-1.2,0.3-1.9,1.1-1.9,2.3C71.2,16.8,71.8,17.4,73.1,17.9z M75.4,21.4V26v0.2
				c1.5-0.3,2.1-1.3,2.1-2.3C77.5,22.8,77,22,75.4,21.4z"/>
			<path class="st0" d="M92.1,15.2c-0.6-0.9-1.4-1.6-2.6-1.9v5.3c3.4,0.8,5.1,2.1,5.1,5.2c0,2.4-1.5,4.7-5,5.1v2.9h-2.5v-2.9
				c-2.3-0.3-4-1.2-5.3-2.9l2.4-1.6c0.8,1,1.7,1.7,3,1.9l0-0.2v-5.2c-3.2-0.8-4.9-2.4-4.9-5.3c0-2.5,1.5-4.6,4.8-4.9v-3h2.5v3
				c2.1,0.3,3.7,1.3,4.8,2.9L92.1,15.2z M87.2,17.9v-4.7c-1.2,0.3-1.9,1.1-1.9,2.3C85.3,16.8,86,17.4,87.2,17.9z M89.6,21.4V26v0.2
				c1.5-0.3,2.1-1.3,2.1-2.3C91.6,22.8,91.2,22,89.6,21.4z"/>
			<path class="st0" d="M106.3,15.2c-0.6-0.9-1.4-1.6-2.6-1.9v5.3c3.4,0.8,5.1,2.1,5.1,5.2c0,2.4-1.5,4.7-5,5.1v2.9h-2.5v-2.9
				c-2.3-0.3-4-1.2-5.3-2.9l2.4-1.6c0.8,1,1.7,1.7,3,1.9l0-0.2v-5.2c-3.2-0.8-4.9-2.4-4.9-5.3c0-2.5,1.5-4.6,4.8-4.9v-3h2.5v3
				c2.1,0.3,3.7,1.3,4.8,2.9L106.3,15.2z M101.4,17.9v-4.7c-1.2,0.3-1.9,1.1-1.9,2.3C99.5,16.8,100.1,17.4,101.4,17.9z M103.7,21.4
				V26v0.2c1.5-0.3,2.1-1.3,2.1-2.3C105.8,22.8,105.3,22,103.7,21.4z"/>
		</g>
		<g>
			<path class="st0" d="M413.5,433.6v6h-2.8V423h5.6c3.8,0,6.1,1.8,6.1,5.2c0,3.4-2.3,5.3-6.1,5.3H413.5z M416.1,431.2
				c2.5,0,3.6-1,3.6-2.9c0-1.8-1.1-2.8-3.6-2.8h-2.6v5.7H416.1z"/>
			<path class="st0" d="M434.1,434.4c0,3.2-1.6,5.5-5.1,5.5c-3.4,0-5.1-2.2-5.1-5.5v-1.5c0-3.5,1.9-5.4,5.1-5.4s5.1,1.9,5.1,5.4
				V434.4z M431.5,434.3v-1.4c0-2.1-0.8-3.3-2.5-3.3c-1.7,0-2.6,1.2-2.6,3.3v1.4c0,1.9,0.6,3.3,2.6,3.3
				C430.8,437.6,431.5,436.2,431.5,434.3z"/>
			<path class="st0" d="M445.9,434.4c0,3.2-1.6,5.5-5.1,5.5c-3.4,0-5.1-2.2-5.1-5.5v-1.5c0-3.5,1.9-5.4,5.1-5.4s5.1,1.9,5.1,5.4
				V434.4z M443.4,434.3v-1.4c0-2.1-0.8-3.3-2.5-3.3c-1.7,0-2.6,1.2-2.6,3.3v1.4c0,1.9,0.6,3.3,2.6,3.3
				C442.6,437.6,443.4,436.2,443.4,434.3z"/>
			<path class="st0" d="M454.5,430.6c-0.4-0.6-0.9-0.9-1.7-0.9c-1.3,0-2.2,1-2.2,2.7v7.2H448v-12h2.5v1.1c0.5-0.7,1.3-1.3,2.7-1.3
				c1.5,0,2.6,0.6,3.3,1.8L454.5,430.6z"/>
		</g>
		<g>
			<path class="st0" d="M52.5,196.6c-0.6-2.8-2.2-3.9-4.5-3.9c-2.8,0-4.5,1.6-4.5,6.1v2c0,4.5,1.7,6.1,4.5,6.1
				c2.4,0,3.9-1.3,4.5-3.9h1.3c-0.5,3.7-3,5.2-5.8,5.2c-3.6,0-5.9-2.1-5.9-7.4v-2c0-5.4,2.3-7.4,5.9-7.4c3,0,5.3,1.5,5.8,5.2H52.5z"
				/>
			<path class="st0" d="M60.8,208.3c-3.1,0-4.9-1.9-4.9-5.3v-1.8c0-3.4,1.8-5.3,4.9-5.3s4.9,1.8,4.9,5.3v1.8
				C65.7,206.3,64,208.3,60.8,208.3z M64.4,201.3c0-2.6-1.3-4-3.6-4c-2.3,0-3.6,1.4-3.6,4v1.8c0,2.5,1.1,4.1,3.6,4.1
				c2.3,0,3.6-1.5,3.6-4.1V201.3z"/>
			<path class="st0" d="M75.1,198.7c-0.7-1.1-1.5-1.5-3.3-1.5c-1.6,0-2.8,0.6-2.8,2c0,1.7,1.5,2,3.2,2.2c2.3,0.3,4.3,1,4.3,3.5
				c0,1.9-1.2,3.3-4.4,3.3c-2.4,0-3.6-0.7-4.5-2l1-0.7c0.7,1,1.6,1.5,3.5,1.5s3-0.6,3-2c0-1.5-1.2-2.1-3.6-2.4c-2-0.3-3.9-1-3.9-3.4
				c0-1.9,1.5-3.2,4.2-3.2c1.9,0,3.3,0.5,4.2,2L75.1,198.7z"/>
			<path class="st0" d="M78.1,196.2h1.5v-2.6h1.3v2.6h3v1.2h-3v6.7c0,1.9,0.2,2.8,2.2,2.8h0.8v1.3H83c-2.7,0-3.4-1.2-3.4-3.7v-7.1
				h-1.5V196.2z"/>
			<path class="st0" d="M96.8,208.3c-3.1,0-4.9-1.9-4.9-5.3v-1.8c0-3.4,1.8-5.3,4.9-5.3s4.9,1.8,4.9,5.3v1.8
				C101.7,206.3,100,208.3,96.8,208.3z M100.3,201.3c0-2.6-1.3-4-3.6-4c-2.3,0-3.6,1.4-3.6,4v1.8c0,2.5,1.1,4.1,3.6,4.1
				c2.3,0,3.6-1.5,3.6-4.1V201.3z"/>
			<path class="st0" d="M104.5,196.2v-0.9c0-2.5,0.8-3.7,3.4-3.7h0.6v1.3H108c-1.9,0-2.1,0.9-2.1,2.8v0.5h2.6v1.2h-2.6v10.8h-1.3
				v-10.8H103v-1.2H104.5z"/>
			<path class="st0" d="M41,221c-0.9-1.3-2-2.2-4.3-2.2s-3.8,0.9-3.8,3c0,2.4,1.9,3,4.3,3.5c3.1,0.7,5.2,1.6,5.2,4.8
				c0,2.1-1.5,4.3-5.4,4.3c-2.6,0-4.6-0.9-5.8-2.7l1.1-0.8c1,1.3,2.2,2.2,4.7,2.2c3,0,4.1-1.4,4.1-3c0-2-1.2-3-4.3-3.6
				c-3.1-0.6-5.2-1.8-5.2-4.8c0-2.3,1.5-4.3,5.2-4.3c2.6,0,4.2,0.9,5.4,2.7L41,221z"/>
			<path class="st0" d="M54.3,234.2h-1.3v-1.6c-0.6,1.1-1.8,1.8-3.6,1.8c-2.7,0-4.4-1.6-4.4-5v-7.1h1.3v7.1c0,2.7,1.4,3.8,3.2,3.8
				c2.3,0,3.4-1.5,3.4-3.7v-7.2h1.3V234.2z"/>
			<path class="st0" d="M66.9,229c0,3.3-1.6,5.3-4.7,5.3c-1.8,0-3-0.5-3.6-1.6v6h-1.3v-16.6h1.3v1.5c0.7-1.1,1.8-1.7,3.6-1.7
				c3,0,4.7,1.8,4.7,5.3V229z M65.6,229v-1.7c0-2.6-1.2-4-3.5-4c-2.5,0-3.5,1.5-3.5,3.9v2.1c0,2.3,0.9,3.9,3.5,3.9
				C64.4,233.1,65.6,231.5,65.6,229z"/>
			<path class="st0" d="M79.1,229c0,3.3-1.6,5.3-4.7,5.3c-1.8,0-3-0.5-3.6-1.6v6h-1.3v-16.6h1.3v1.5c0.7-1.1,1.8-1.7,3.6-1.7
				c3,0,4.7,1.8,4.7,5.3V229z M77.8,229v-1.7c0-2.6-1.2-4-3.5-4c-2.5,0-3.5,1.5-3.5,3.9v2.1c0,2.3,0.9,3.9,3.5,3.9
				C76.6,233.1,77.8,231.5,77.8,229z"/>
			<path class="st0" d="M86.1,234.3c-3.1,0-4.9-1.9-4.9-5.3v-1.8c0-3.4,1.8-5.3,4.9-5.3s4.9,1.8,4.9,5.3v1.8
				C90.9,232.3,89.3,234.3,86.1,234.3z M89.6,227.3c0-2.6-1.3-4-3.6-4c-2.3,0-3.6,1.4-3.6,4v1.8c0,2.5,1.1,4.1,3.6,4.1
				c2.3,0,3.6-1.5,3.6-4.1V227.3z"/>
			<path class="st0" d="M94.8,226.9v7.2h-1.3v-12h1.3v1.6c0.5-1.1,1.5-1.8,3-1.8c1.6,0,2.6,0.6,3.4,1.7l-1.1,0.8
				c-0.6-0.8-1.3-1.2-2.4-1.2C95.8,223.3,94.8,224.8,94.8,226.9z"/>
			<path class="st0" d="M102.4,222.2h1.5v-2.6h1.3v2.6h3v1.2h-3v6.7c0,1.9,0.2,2.8,2.2,2.8h0.8v1.3h-0.8c-2.7,0-3.4-1.2-3.4-3.7
				v-7.1h-1.5V222.2z"/>
		</g>
		<g>
			<path class="st0" d="M627.9,431.1v1.3c0,5.2-2.4,7.4-6.1,7.4c-3.7,0-6.2-2.2-6.2-7.4v-2c0-5.3,2.5-7.6,6.2-7.6
				c3.4,0,5.5,1.9,6,5.4h-2.7c-0.4-1.9-1.5-2.9-3.3-2.9c-2.2,0-3.4,1.4-3.4,5v2.1c0,3.6,1.2,5,3.4,5c2.1,0,3.2-1.2,3.4-3.9h-3.3
				v-2.4H627.9z"/>
			<path class="st0" d="M640,434.4c0,3.2-1.6,5.5-5.1,5.5c-3.4,0-5.1-2.2-5.1-5.5v-1.5c0-3.5,1.9-5.4,5.1-5.4s5.1,1.9,5.1,5.4V434.4
				z M637.4,434.3v-1.4c0-2.1-0.8-3.3-2.5-3.3c-1.7,0-2.6,1.2-2.6,3.3v1.4c0,1.9,0.6,3.3,2.6,3.3
				C636.7,437.6,637.4,436.2,637.4,434.3z"/>
			<path class="st0" d="M651.8,434.4c0,3.2-1.6,5.5-5.1,5.5c-3.4,0-5.1-2.2-5.1-5.5v-1.5c0-3.5,1.9-5.4,5.1-5.4s5.1,1.9,5.1,5.4
				V434.4z M649.3,434.3v-1.4c0-2.1-0.8-3.3-2.5-3.3c-1.7,0-2.6,1.2-2.6,3.3v1.4c0,1.9,0.6,3.3,2.6,3.3
				C648.6,437.6,649.3,436.2,649.3,434.3z"/>
			<path class="st0" d="M661.1,423h2.5v16.6h-2.5v-0.8c-0.6,0.7-1.6,1.1-2.9,1.1c-3.2,0-4.8-2.3-4.8-5.4v-1.6c0-3.5,1.9-5.4,4.8-5.4
				c1.2,0,2.2,0.4,2.9,1.1V423z M661.1,434.3v-1.5c0-2-0.9-3.1-2.5-3.1c-1.7,0-2.6,1.2-2.6,3.3v1.4c0,1.9,0.7,3.3,2.6,3.3
				C660.5,437.6,661.1,436.2,661.1,434.3z"/>
		</g>
		<g>
			<path class="st0" d="M832.9,431.1v1.3c0,5.2-2.4,7.4-6.1,7.4c-3.7,0-6.2-2.2-6.2-7.4v-2c0-5.3,2.5-7.6,6.2-7.6
				c3.4,0,5.5,1.9,6,5.4h-2.7c-0.4-1.9-1.5-2.9-3.3-2.9c-2.2,0-3.4,1.4-3.4,5v2.1c0,3.6,1.2,5,3.4,5c2.1,0,3.2-1.2,3.4-3.9h-3.3
				v-2.4H832.9z"/>
			<path class="st0" d="M841.8,430.6c-0.4-0.6-0.9-0.9-1.7-0.9c-1.3,0-2.2,1-2.2,2.7v7.2h-2.6v-12h2.5v1.1c0.5-0.7,1.3-1.3,2.7-1.3
				c1.5,0,2.6,0.6,3.3,1.8L841.8,430.6z"/>
			<path class="st0" d="M854.1,437.8c-0.8,1.5-2.2,2-4.3,2c-3.4,0-5.3-2.2-5.3-5.4v-1.6c0-3.5,1.7-5.4,4.9-5.4c3.3,0,4.8,2,4.8,5.5
				v1.3h-7.2v0c0,1.9,0.7,3.3,2.6,3.3c1.4,0,2-0.4,2.5-1.2L854.1,437.8z M847.1,432.3h4.6c-0.1-1.8-0.8-2.6-2.3-2.6
				C847.9,429.6,847.2,430.6,847.1,432.3z"/>
			<path class="st0" d="M860.3,432.5h2.6v-1c0-1.5-0.6-1.9-2.4-1.9c-1.3,0-1.9,0.1-2.5,1.1l-1.8-1.3c0.9-1.4,2.2-2,4.5-2
				c3.1,0,4.7,1,4.7,4.2v8.1h-2.5v-1.1c-0.6,0.9-1.3,1.3-2.8,1.3c-2.6,0-4.3-1.3-4.3-3.7C855.8,433.5,857.7,432.5,860.3,432.5z
				 M862.9,434.5h-2.4c-1.5,0-2.1,0.5-2.1,1.6c0,1.1,0.8,1.6,2,1.6c1.6,0,2.5-0.5,2.5-2.6V434.5z"/>
			<path class="st0" d="M867,427.6h1.5V425h2.5v2.6h2.5v2.2h-2.5v5.5c0,1.4,0.2,2,1.6,2h1v2.3h-1.2c-2.9,0-3.9-1-3.9-3.8v-6H867
				V427.6z"/>
		</g>
	</g>
	<g>
		<text transform="matrix(1 0 0 1 371.4446 171.9944)"><tspan x="0" y="0" class="st0 st1 st2">Poor experiences cost</tspan><tspan x="98.6" y="43.1" class="st0 st1 st2">$Millions</tspan></text>
	</g>
	<polyline id="Graph_x5F_base_x5F_line" class="st3" points="139.3,24.7 139.3,398.7 924,398.7 	"/>
	<path id="graph_x5F_result_x5F_line" class="st4" d="M924,358.6c-336.6-4.6-627.6-84.8-747.3-334"/>
	<g id="graph_x5F_lines">
		<line class="st5" x1="225.2" y1="24.7" x2="225.2" y2="398.7"/>
		<line class="st5" x1="922.6" y1="211.7" x2="138.7" y2="211.7"/>
		<line class="st5" x1="922.6" y1="24.1" x2="138.7" y2="24.1"/>
		<line class="st5" x1="328.7" y1="24.7" x2="328.7" y2="398.7"/>
		<line class="st5" x1="432.1" y1="24.7" x2="432.1" y2="398.7"/>
		<line class="st5" x1="535.6" y1="24.7" x2="535.6" y2="398.7"/>
		<line class="st5" x1="639" y1="24.7" x2="639" y2="398.7"/>
		<line class="st5" x1="742.4" y1="24.7" x2="742.4" y2="398.7"/>
		<line class="st5" x1="845.9" y1="24.7" x2="845.9" y2="398.7"/>
		<line class="st5" x1="923.7" y1="24.7" x2="923.7" y2="398.7"/>
	</g>
	<circle id="v-poor" class="st0" cx="226.3" cy="105.7" r="8.9"/>
	<circle id="v-poor-2" class="st0" cx="328.7" cy="206.9" r="8.9"/>
	<circle id="poor" class="st0" cx="432.7" cy="269.2" r="8.9"/>
	<circle id="poor-2" class="st0" cx="536.2" cy="308.5" r="8.9"/>
	<circle id="good" class="st0" cx="639.2" cy="332.5" r="8.9"/>
	<circle id="good-2" class="st0" cx="742.3" cy="348.4" r="8.9"/>
	<circle id="great" class="st0" cx="845.9" cy="356.2" r="8.9"/>
	<path id="graph_x5F_fill" class="st6" d="M924,398.7H139.3v-374l37.4-0.1C296.4,273.7,587.4,354,924,358.6V398.7z"/>
	<g id="check_x5F_line">
		<g>
			<line class="st3" x1="252.5" y1="104.7" x2="256.5" y2="104.7"/>
			<line class="st7" x1="264.5" y1="104.7" x2="789" y2="104.7"/>
			<polyline class="st3" points="793,104.7 797,104.7 797,108.7 			"/>
			<line class="st8" x1="797" y1="116.5" x2="797" y2="331.1"/>
			<line class="st3" x1="797" y1="335" x2="797" y2="339"/>
			<g>
				<polygon class="st0" points="254,109.7 245.3,104.7 254,99.8 				"/>
			</g>
			<g>
				<polygon class="st0" points="792.1,337.6 797,346.2 802,337.6 				"/>
			</g>
		</g>
	</g>
</g>
</svg>
